<svg version="1.1" xmlns="http://www.w3.org/2000/svg" viewBox="0 0 201.25139423299197 244.05489406752702" width="402.50278846598394" height="488.10978813505403">
  <!-- svg-source:excalidraw -->
  
  <defs>
    <style class="style-fonts">
      @font-face {
        font-family: "Virgil";
        src: url("https://excalidraw.com/Virgil.woff2");
      }
      @font-face {
        font-family: "Cascadia";
        src: url("https://excalidraw.com/Cascadia.woff2");
      }
    </style>
  </defs>
  <rect x="0" y="0" width="201.25139423299197" height="244.05489406752702" fill="#ffffff"></rect><g transform="translate(10 12.194389316004504) rotate(0 90.62569711649599 109.833057717759)" stroke="none"><path d="M-0.09 -0.08 C-0.09 -0.08, -0.09 -0.08, -0.09 -0.08 M-0.09 -0.08 C-0.09 -0.08, -0.09 -0.08, -0.09 -0.08 M3.03 2.43 C3.96 1.54, 4.73 0.88, 7.04 -1.93 M2.68 2.41 C3.92 1.5, 5.12 0.07, 6.72 -2.27 M7.77 3.44 C9.06 1.39, 10.38 -0.03, 11.44 -2.16 M7.87 3.09 C8.78 1.98, 9.37 1.18, 12.06 -1.46 M12.41 4.45 C13.76 2.65, 13.72 1.62, 17.95 -2.17 M12.58 4.22 C14.48 2.02, 16.73 -0.79, 17.26 -1.74 M16.44 6.43 C17.92 2.94, 20.09 1.11, 20.94 -1.37 M15.48 5.52 C17.32 3.77, 19.28 2.13, 21.83 -1.01 M20.71 6.14 C22.73 5.04, 24.19 3.76, 27.13 -1.14 M20.58 6.67 C22.35 3.97, 24.57 2.49, 27.9 -1.21 M24.39 9.3 C28.21 3.5, 30.45 0.99, 33.21 -1.45 M24.39 8.68 C27.74 4.83, 30.26 0.73, 31.88 -1.04 M29.97 8.12 C31.42 5.83, 36.03 1.4, 37.89 -0.6 M28.68 8.77 C31.33 7.19, 33.21 3.82, 37.03 -1.18 M33.38 9.08 C35.18 7.57, 38.04 4.14, 43.98 -2.36 M32.92 9.78 C37.22 7.07, 40.15 2.71, 42.45 -1 M35.98 12.62 C40.36 9.99, 44.59 3.1, 47.59 0.8 M36.33 12.91 C40.29 7.43, 44.22 3.29, 47.36 -1.22 M40.93 15.88 C44.12 9.78, 47.4 8.96, 53.05 -0.22 M39.75 13.86 C44.42 11.5, 45.4 7.79, 54.12 -1.26 M45.31 14.82 C48.77 13.2, 50.82 7.76, 57.07 1.25 M45.59 15.96 C49.69 8.34, 54.95 3.48, 57.81 -1.6 M47.05 18.47 C55 11.91, 58.19 8.75, 65.5 0.91 M48.18 17.54 C52.67 11.37, 59.22 5.5, 63.2 -1.24 M52.01 17.34 C55.65 14.65, 61.79 10.72, 68.96 -0.69 M52.96 19.67 C56.14 13.99, 58.62 9.94, 68.81 1.7 M57.42 20.29 C62.62 11.91, 68.7 5.03, 72.37 0.08 M56.62 20.44 C63.6 11.85, 68.92 5.92, 72.91 1.24 M58.82 23.51 C65.34 16.23, 69.71 12.92, 78.52 -1.31 M58.66 23.35 C63.32 17.68, 67.36 13.34, 79.78 -0.33 M64.26 24.28 C70.05 17.49, 74.36 12.67, 83.68 -0.8 M64.23 24.4 C67.68 19.85, 71.23 14.88, 83.97 -0.33 M68.61 26.73 C77.13 16.32, 84.53 4.43, 91.8 -1 M67.05 27.25 C72.84 19.44, 77.2 13.97, 89.05 0.46 M71.11 28.31 C78.32 18.38, 88.6 6.74, 97.45 -1.19 M69.57 29.08 C78.08 19.76, 87.13 9.72, 95.23 -0.88 M72.24 30.54 C80 21.25, 87.08 16.21, 98.78 1.44 M74.53 30.69 C81.58 22, 88.37 13.72, 100.91 0.8 M75.42 34.07 C83.76 22.82, 91.71 16.31, 104.35 0.81 M77.18 32.93 C83.55 27.49, 88.47 19.81, 104.19 0.99 M78.48 34.34 C87.44 27.91, 97.21 16.54, 107.43 3.64 M79.47 35.79 C88.91 24.83, 99 13.94, 109.72 2.73 M81.99 38.17 C90.41 28.69, 101.79 14.67, 113.62 6.25 M82.98 38.26 C91.79 27.3, 101.68 17.31, 113.02 4.7 M86.77 41.17 C95.71 33.45, 102.4 22.72, 116.32 6.29 M85 41.24 C97.17 27.4, 109.96 13.91, 116.51 6.35 M88.89 45.83 C100.34 30.48, 109.96 18.7, 121.76 6.5 M88.23 44.9 C97.51 32.2, 108.19 20.21, 121.21 7 M91.81 48.43 C104.55 32.86, 117.43 17, 123.91 7.72 M91.53 47.05 C101.66 33.84, 114.32 21.04, 124.24 10.29 M95.45 50.87 C106.41 36.99, 117.8 23.98, 125.98 10.86 M93.55 50.26 C106.77 35.87, 119.57 22.72, 126.98 11.45 M94.94 53.14 C106.23 44.75, 115.42 30.04, 132.71 12.91 M96.2 53.77 C105.35 42.79, 116.58 30.64, 131.99 12.78 M96.33 58.03 C106.72 48.01, 115.12 37.58, 134.69 14.97 M98.91 57.56 C112.7 40.59, 126.67 24.04, 135.9 14.93 M98.78 60.96 C114.92 47.5, 128.29 31.13, 137.85 16.2 M99.49 61.54 C112.91 46.62, 124.92 33.5, 139.54 16.36 M102.17 66.15 C112.84 52.2, 127 36.27, 141.7 19.62 M100.34 67.1 C115.08 49.79, 130.77 32.73, 142.9 18.38 M102.6 70.92 C112.89 59.44, 119.69 50.71, 146.35 21.56 M102.58 70.78 C111.16 59.89, 120.6 49.6, 146.62 20.11 M102.18 77.2 C116.47 63.35, 131.13 44.32, 148.68 23.21 M102.49 77.2 C117.02 58.47, 134 41.2, 148.91 23.3 M102.32 83.95 C114.38 71.71, 126.65 57.58, 153.94 26.83 M101.39 82.79 C117.05 65.32, 132.62 47.58, 151.7 25.96 M102.86 85.75 C125.45 62.87, 143.82 40.36, 156.65 27.02 M103.4 87.78 C119.49 67.85, 135.52 48.75, 156.22 28.99 M99.7 95.8 C119.33 76.41, 135.01 53.56, 156.9 30.72 M101.71 96.59 C114.71 79.71, 128.38 64.28, 157.9 31.6 M102.09 101.81 C115.63 86.31, 132.24 70.16, 161.91 35.21 M100.5 103.08 C114.44 88.13, 127.84 72.4, 160.52 34.61 M101.18 108.11 C116.19 91.32, 127.75 79.2, 164.21 37.83 M102.08 106.04 C120.47 87.76, 137.01 68.36, 165.08 37.59 M10.32 219.64 C10.32 219.64, 10.32 219.64, 10.32 219.64 M10.32 219.64 C10.32 219.64, 10.32 219.64, 10.32 219.64 M100.83 111.54 C123.28 90.1, 146.73 63.81, 166.37 39 M102.76 112.96 C118.52 95.32, 135.94 75.9, 166.69 39.64 M14.15 220.45 C16.14 219.61, 16.36 217.84, 17.44 216.9 M14.58 220.73 C15.69 219.48, 17.12 217.94, 17.8 216.76 M104.06 118.62 C127.94 90.35, 153.93 64.21, 169.29 43.44 M103.37 117.98 C124.86 95.78, 143.04 73.96, 169.66 42.77 M19.79 220.78 C20.32 220.32, 21.76 218.85, 26.32 214.39 M20.05 221.17 C21.61 218.82, 24.1 215.93, 25.56 214.69 M101.92 125.15 C121.09 103.39, 144.04 79.27, 169.77 45.63 M103.27 125.94 C125.87 98.76, 149.5 72.27, 171.86 46.22 M24.28 219.46 C28.13 218.3, 28.66 215.11, 35.73 209.3 M25.82 221.15 C28.12 216.56, 30.99 213.38, 34.89 209.81 M100.68 132.77 C126.07 107.83, 145.03 79.79, 174.57 51.9 M101.06 134.45 C125.3 103.59, 152.1 73.98, 173.18 50.01 M32.2 221.4 C35.03 212.05, 41.52 207.77, 46.02 203.32 M30.17 221.57 C34.58 217.78, 36.7 213, 46.86 202.48 M103.85 139.74 C127.59 108.68, 151.41 81.22, 177.09 52.21 M102.71 138.66 C126.71 108.79, 152.28 80.51, 176.25 52.73 M34.95 220.4 C42.28 215.33, 49.69 204.88, 54.97 200.07 M35.25 220.93 C41.62 214.7, 48.36 206.24, 54.92 198.76 M99.13 148.03 C123.38 118.13, 150.75 88.87, 179.38 57.93 M98.38 148.41 C124.12 118.58, 150.68 89.16, 178.35 57.29 M37.96 223.75 C85.93 172.39, 128.34 120.3, 180.09 62.35 M38.89 222.08 C96.55 157.19, 151.24 93.21, 180.07 61.3 M45.14 221.9 C85.47 177.32, 124.38 131.45, 178.66 65.3 M45.21 222.64 C95.23 162.95, 146.9 103.23, 179.88 66.35 M50.32 222.48 C81.87 186.26, 115.46 145.46, 179.95 70.68 M50.63 223.15 C92.27 175.83, 131.67 129.78, 180.74 72.66 M56.4 223.95 C104.87 168.94, 150.96 113.92, 180.53 75.04 M56.38 221.96 C105.15 165.74, 154.2 110.5, 182.29 76.42 M61.85 223.09 C93.84 186.36, 126.23 149.8, 181.73 82.81 M60.05 222.02 C90.45 189.25, 120.47 156.05, 182.04 82.43 M67.42 223.78 C102.88 179.65, 140.48 139.06, 180.88 87.89 M65.02 222.34 C98.28 185.68, 131.35 148.02, 182.47 88.24 M71.73 221.73 C106.07 182.88, 140.7 143.43, 182.13 95 M70.67 222.22 C112.99 174.22, 154.15 125.55, 182.64 95.07 M74.21 225.5 C110.71 179.12, 151.11 136.07, 180.68 103.75 M75.9 223.59 C98.01 198.27, 119.56 172.87, 181.05 103.17 M81.31 222.23 C121.17 176.75, 158.64 132.96, 178.32 108.28 M80.08 224.15 C116.04 184.53, 150.6 145.55, 179.76 110.89 M85.44 222.64 C108.19 201.42, 126.82 174.38, 182.35 114.82 M86.47 223.75 C122.25 183.37, 155.85 143.67, 182.01 113.64 M92.56 225.8 C111.58 202.34, 132.65 179.74, 179.36 121.26 M90.58 224.53 C126.93 184.64, 160.98 144.77, 178.56 122.75 M97.07 223.6 C116.85 200.34, 138.27 176.33, 175.14 134.5 M97.55 222.73 C126.44 189.25, 155 156.2, 176.25 132.26 M102.76 224.54 C127.27 193.41, 154.46 163.3, 173.09 141.27 M101.84 223.89 C117.34 206.56, 131.21 189.73, 175.06 139.11 M108.32 223.16 C133.21 192.81, 156.96 165.14, 175.23 143.92 M109.29 221.68 C127.85 201.16, 145.13 179.33, 175.66 144.27 M118.41 218.63 C131.53 203.15, 142 188.01, 173.12 153.92 M116.83 219.8 C134.24 199.33, 152.28 179.72, 173.08 153.68 M127.05 213.44 C143.42 192.79, 164.08 172.38, 169.84 163.01 M126.5 214.09 C140.76 195.78, 158.15 178.52, 171.21 162.68 M135.36 209.42 C145.3 196.82, 158.59 183.15, 167.22 170.79 M135.88 209.92 C142.93 201.42, 152.19 192.09, 168.7 171.07 M146.43 203.74 C152.59 199.7, 157.38 191.39, 159.96 185.97 M145.43 203.55 C149.6 198.91, 154.88 192.24, 161.72 185.69" stroke="#ffec99" stroke-width="0.5" fill="none"></path><path fill="#ffec99" d="M 0.44,-1.67 Q 0.44,-1.67 6.06,0.04 11.67,1.76 19.51,4.25 27.35,6.74 35.98,10.25 44.60,13.76 50.58,16.56 56.57,19.36 63.26,23.40 69.96,27.43 76.85,33.79 83.73,40.16 87.62,44.50 91.51,48.85 94.44,54.05 97.36,59.25 98.84,63.99 100.31,68.74 100.94,73.53 101.57,78.32 101.83,83.35 102.09,88.38 102.20,93.32 102.31,98.25 102.35,102.01 102.40,105.77 102.42,108.73 102.44,111.69 102.44,115.67 102.45,119.65 101.98,124.40 101.50,129.15 100.32,134.47 99.14,139.79 97.70,144.78 96.27,149.77 94.25,154.67 92.24,159.56 89.21,164.31 86.19,169.05 82.17,173.98 78.15,178.91 73.86,182.99 69.58,187.06 64.96,190.75 60.35,194.44 56.19,197.05 52.04,199.66 48.60,201.55 45.16,203.44 42.15,205.23 39.14,207.01 36.84,208.28 34.55,209.55 31.80,211.08 29.06,212.61 27.35,213.58 25.63,214.55 24.39,215.33 23.15,216.10 21.87,216.79 20.60,217.49 19.49,218.02 18.38,218.56 17.44,219.07 16.50,219.59 15.47,220.06 14.44,220.52 13.15,220.98 11.85,221.44 11.65,221.65 11.45,221.87 11.16,221.93 10.86,221.99 10.56,221.98 10.26,221.97 9.97,221.88 9.68,221.80 9.42,221.65 9.16,221.50 8.94,221.29 8.73,221.08 8.57,220.83 8.40,220.58 8.31,220.29 8.21,220.01 8.19,219.71 8.16,219.41 8.21,219.11 8.26,218.81 8.37,218.53 8.49,218.26 8.67,218.02 8.85,217.77 9.08,217.58 9.32,217.39 9.59,217.26 9.86,217.13 10.98,217.07 12.10,217.00 15.61,217.38 19.12,217.76 26.38,218.42 33.64,219.07 42.44,219.39 51.25,219.70 57.56,219.87 63.88,220.03 72.68,220.12 81.47,220.21 86.83,220.27 92.19,220.32 96.79,220.02 101.40,219.73 105.26,218.95 109.13,218.18 111.76,217.53 114.40,216.87 117.42,215.63 120.44,214.38 124.74,212.49 129.04,210.59 133.54,208.47 138.04,206.34 142.32,204.17 146.60,201.99 149.08,200.50 151.55,199.01 152.86,197.79 154.16,196.58 154.87,195.27 155.58,193.97 156.77,191.54 157.96,189.11 159.53,186.03 161.10,182.95 161.70,181.15 162.31,179.35 163.23,176.64 164.16,173.93 165.24,170.09 166.32,166.24 167.69,162.11 169.06,157.97 170.10,153.30 171.14,148.63 172.04,143.91 172.95,139.19 173.82,133.94 174.69,128.69 175.52,123.72 176.36,118.75 177.17,113.92 177.99,109.08 178.55,104.86 179.11,100.64 179.34,96.69 179.58,92.74 179.68,89.24 179.78,85.73 179.82,82.58 179.87,79.42 179.69,77.31 179.51,75.19 179.03,72.40 178.54,69.60 177.76,66.79 176.97,63.97 175.77,60.60 174.58,57.23 173.10,54.18 171.63,51.13 170.01,48.17 168.40,45.21 166.37,42.52 164.35,39.83 162.03,37.10 159.71,34.38 156.90,31.87 154.09,29.37 152.02,27.66 149.95,25.96 147.49,24.07 145.04,22.19 143.05,20.91 141.05,19.64 139.01,18.38 136.97,17.11 134.18,15.78 131.39,14.44 127.90,12.81 124.40,11.18 120.22,9.16 116.04,7.14 112.61,5.53 109.18,3.93 107.28,3.16 105.39,2.40 104.28,2.00 103.18,1.60 102.07,1.44 100.97,1.28 99.08,1.34 97.18,1.40 94.65,1.27 92.12,1.14 88.12,1.05 84.12,0.96 78.83,0.70 73.55,0.44 67.46,0.30 61.38,0.17 55.53,-0.08 49.68,-0.35 44.11,-0.47 38.54,-0.60 35.13,-0.66 31.72,-0.72 28.61,-0.75 25.50,-0.78 23.19,-0.80 20.87,-0.81 17.91,-0.82 14.95,-0.83 13.14,-0.77 11.33,-0.72 10.00,-0.61 8.68,-0.50 7.27,-0.33 5.87,-0.15 3.32,0.73 0.77,1.63 0.46,1.70 0.15,1.78 -0.16,1.75 -0.48,1.73 -0.77,1.60 -1.06,1.47 -1.30,1.26 -1.53,1.05 -1.69,0.77 -1.84,0.49 -1.90,0.18 -1.96,-0.13 -1.92,-0.44 -1.87,-0.76 -1.73,-1.04 -1.59,-1.32 -1.36,-1.55 -1.14,-1.77 -0.85,-1.91 -0.56,-2.05 -0.25,-2.10 0.06,-2.14 0.37,-2.08 0.68,-2.01 0.96,-1.86 1.23,-1.70 1.44,-1.46 1.66,-1.22 1.78,-0.93 1.91,-0.64 1.93,-0.32 1.95,-0.00 1.88,0.30 1.80,0.60 1.63,0.87 1.45,1.14 1.20,1.34 0.96,1.53 0.66,1.64 0.36,1.75 0.04,1.76 -0.27,1.77 -0.57,1.67 -0.88,1.58 -1.13,1.39 -1.39,1.20 -1.58,0.94 -1.76,0.69 -1.85,0.38 -1.94,0.08 -1.93,-0.23 -1.92,-0.55 -1.81,-0.85 -1.70,-1.15 -1.50,-1.39 -1.30,-1.64 -1.03,-1.81 -0.76,-1.98 -0.76,-1.98 -0.77,-1.98 2.55,-3.10 5.87,-4.22 7.27,-4.05 8.68,-3.87 10.00,-3.77 11.33,-3.66 13.14,-3.60 14.96,-3.54 17.92,-3.54 20.88,-3.54 23.20,-3.55 25.51,-3.55 28.63,-3.54 31.76,-3.54 35.17,-3.52 38.59,-3.49 44.20,-3.42 49.80,-3.35 55.61,-3.15 61.42,-2.96 67.55,-2.92 73.67,-2.88 78.90,-2.75 84.12,-2.62 88.13,-2.71 92.14,-2.79 94.70,-2.90 97.26,-3.01 99.42,-2.80 101.58,-2.58 103.08,-1.92 104.58,-1.25 105.49,-0.66 106.40,-0.07 108.35,0.74 110.29,1.55 113.74,3.16 117.18,4.77 121.35,6.79 125.51,8.80 129.02,10.44 132.53,12.07 135.44,13.47 138.35,14.88 140.41,16.15 142.47,17.43 144.56,18.77 146.64,20.10 149.13,22.02 151.62,23.93 153.73,25.67 155.84,27.41 158.78,30.04 161.71,32.68 164.08,35.46 166.45,38.25 168.58,41.10 170.71,43.95 172.35,46.97 173.99,49.99 175.52,53.17 177.05,56.35 178.28,59.81 179.50,63.27 180.32,66.21 181.14,69.15 181.64,72.06 182.13,74.98 182.32,77.22 182.50,79.46 182.46,82.63 182.41,85.81 182.31,89.35 182.21,92.90 181.97,96.94 181.73,100.98 181.16,105.25 180.60,109.52 179.79,114.36 178.98,119.19 178.15,124.16 177.33,129.12 176.46,134.41 175.60,139.70 174.69,144.46 173.79,149.22 172.73,154.02 171.68,158.83 170.35,162.91 169.02,166.99 167.95,170.91 166.88,174.84 165.99,177.58 165.10,180.32 164.40,182.28 163.69,184.24 162.18,187.32 160.67,190.41 159.45,193.03 158.23,195.66 157.14,197.17 156.05,198.69 154.49,199.98 152.93,201.28 150.37,202.83 147.81,204.37 143.50,206.57 139.19,208.77 134.66,210.92 130.13,213.06 125.81,214.99 121.49,216.91 118.29,218.24 115.09,219.56 112.39,220.26 109.69,220.96 105.65,221.79 101.60,222.63 96.89,222.98 92.18,223.34 86.82,223.36 81.46,223.38 72.64,223.39 63.83,223.40 57.49,223.37 51.15,223.34 42.25,223.20 33.35,223.07 26.10,222.66 18.84,222.25 15.15,222.06 11.45,221.87 11.16,221.93 10.86,221.99 10.56,221.98 10.26,221.97 9.97,221.88 9.68,221.80 9.42,221.65 9.16,221.50 8.94,221.29 8.73,221.08 8.57,220.83 8.40,220.58 8.31,220.29 8.21,220.01 8.19,219.71 8.16,219.41 8.21,219.11 8.26,218.81 8.37,218.53 8.49,218.26 8.67,218.02 8.85,217.77 9.08,217.58 9.32,217.39 9.59,217.26 9.86,217.13 10.54,216.91 11.21,216.69 12.98,216.23 14.75,215.76 15.85,215.35 16.95,214.93 18.02,214.60 19.10,214.27 20.38,213.78 21.65,213.28 22.98,212.70 24.31,212.11 26.04,211.21 27.78,210.32 30.53,208.78 33.28,207.25 35.54,206.00 37.80,204.75 40.85,202.95 43.90,201.14 47.27,199.29 50.64,197.43 54.68,194.91 58.71,192.38 63.24,188.77 67.77,185.15 71.94,181.20 76.12,177.25 80.05,172.44 83.98,167.63 86.89,163.09 89.81,158.55 91.78,153.80 93.75,149.04 95.16,144.13 96.57,139.22 97.73,134.05 98.88,128.88 99.35,124.27 99.82,119.66 99.81,115.68 99.80,111.71 99.78,108.76 99.76,105.80 99.72,102.06 99.67,98.31 99.56,93.42 99.45,88.52 99.20,83.59 98.94,78.66 98.36,74.09 97.77,69.51 96.40,65.03 95.03,60.54 92.27,55.58 89.51,50.62 85.70,46.38 81.90,42.14 75.22,35.95 68.55,29.76 61.97,25.82 55.40,21.87 49.47,19.12 43.54,16.38 35.01,12.94 26.48,9.50 18.65,7.06 10.81,4.63 5.18,2.97 -0.44,1.32 -0.62,1.24 -0.79,1.16 -0.94,1.05 -1.09,0.94 -1.21,0.79 -1.32,0.64 -1.40,0.47 -1.48,0.30 -1.52,0.11 -1.55,-0.06 -1.54,-0.25 -1.53,-0.44 -1.48,-0.62 -1.43,-0.80 -1.33,-0.96 -1.23,-1.12 -1.10,-1.26 -0.97,-1.39 -0.81,-1.49 -0.65,-1.59 -0.47,-1.65 -0.29,-1.70 -0.10,-1.72 0.07,-1.73 0.26,-1.70 0.44,-1.67 0.44,-1.67 L 0.44,-1.67 Z"></path></g></svg>