<svg version="1.1" xmlns="http://www.w3.org/2000/svg" viewBox="0 0 271.6915845386254 319.5842202788306" width="543.3831690772508" height="639.1684405576613">
  <!-- svg-source:excalidraw -->
  
  <defs>
    <style class="style-fonts">
      @font-face {
        font-family: "Virgil";
        src: url("https://excalidraw.com/Virgil.woff2");
      }
      @font-face {
        font-family: "Cascadia";
        src: url("https://excalidraw.com/Cascadia.woff2");
      }
    </style>
  </defs>
  <rect x="0" y="0" width="271.6915845386254" height="319.5842202788306" fill="#ffffff"></rect><g stroke-linecap="round" transform="translate(77.98629865034445 80.08245000741357) rotate(0 58.887082703602914 79.18389305939974)"><path d="M24.18 15.72 C24.18 15.72, 24.18 15.72, 24.18 15.72 M24.18 15.72 C24.18 15.72, 24.18 15.72, 24.18 15.72 M7.74 42.23 C16.84 26.34, 29.02 14.52, 36.28 7.39 M7.98 40.78 C17.73 29.54, 26.65 18.4, 35.77 9.24 M3.41 48.14 C15.19 36.64, 24.11 28.1, 47.62 1.42 M5.9 50.51 C17.84 34.87, 29.29 20.22, 46.75 2.38 M4.36 57.06 C19.11 42.97, 29.88 24.86, 48.52 2.33 M3.08 57.42 C19.11 40.7, 33.35 21.81, 50.31 4.83 M2.15 65.25 C15.26 52.68, 24.77 39.24, 56.86 2.14 M1.9 65 C15.6 50.54, 27.57 37.18, 56.03 2.92 M1.18 72.49 C20.22 49.41, 43.97 26.64, 61.24 4.02 M-0.62 74.94 C20.92 49.1, 43.74 22.66, 60.44 4.37 M2.35 77.58 C17 60.61, 34.13 39.94, 67.24 6.14 M2.25 77.18 C16.65 62.22, 29.99 46.52, 66.57 4.76 M3.71 84.17 C17.78 65.91, 33.64 46.8, 72.5 2.94 M2.93 82.38 C27.94 53.5, 52.89 25.65, 72.49 3.49 M3.99 86.65 C19.97 69.81, 35.77 53.66, 75.21 4.95 M4.46 88.49 C28.84 58.27, 54.98 29.96, 77.06 4.14 M6.4 91.22 C27.06 67.15, 47.2 44.4, 79.17 5.73 M5.65 92.32 C28.23 64.96, 53.19 36.8, 80.5 6.08 M5.77 97.1 C37.59 60.48, 66.66 26.93, 82.75 7.84 M5.65 97.54 C22.34 77.32, 39.06 58.02, 82.63 9.06 M4.26 104.57 C29.98 78.9, 51.29 51.94, 84.81 10.14 M6.97 103.19 C33.43 72.09, 58.92 43, 86.18 11.17 M7.09 106.92 C36.1 73.55, 62.63 41.16, 89.67 14.3 M6.61 108.38 C31.94 81.84, 54 56.43, 89.18 13.88 M7.7 114.03 C25.14 94.06, 41.24 74.65, 94.29 14.03 M8.61 114.39 C32.94 86.51, 56.31 57.18, 93.46 15.99 M12.02 119 C28.79 98.62, 45.83 76.6, 97.93 16.81 M9.71 118 C31.81 94.28, 53.07 69.46, 95.71 17.93 M11.1 123.03 C36.97 91.58, 64.98 58.18, 97.28 21.16 M11.29 120.96 C30.71 99.54, 48.9 78.77, 98 21.71 M15.35 123.83 C46.08 85.26, 80.37 44.9, 100.19 22.91 M13.02 125.06 C39.77 95.41, 65.74 63.4, 100.86 23.72 M17.01 129.64 C38.14 106.92, 55.32 83.22, 104.79 27.91 M16.74 128.71 C47.33 92.07, 78.5 55.31, 103.76 28.19 M17.94 131.78 C44.99 102.26, 72.36 66.3, 105.82 33.55 M17.57 132.16 C44.06 103.62, 71.46 72.84, 104.89 31.22 M19.3 138.32 C44.78 112.74, 67.4 84.5, 108.51 35.52 M19 137.82 C45.61 106.45, 71.44 77.06, 106.32 36.23 M20.69 143.38 C42.99 117.27, 65.45 91.82, 107.54 40.04 M21.39 142.13 C53.81 105.41, 86.89 66.5, 110.38 38.8 M24.5 142.35 C55.51 111.03, 85.36 76.64, 111.54 44.13 M23.7 143.43 C42.55 121.66, 61.06 101.53, 111.57 43.55 M27.13 145.71 C48.98 122.78, 70.16 96.29, 113.46 48.58 M28.07 146.41 C52.17 115.37, 79.35 87.28, 112.23 47.79 M33.23 147.44 C63.2 112.15, 98.39 71.4, 113.03 51.98 M31.48 147.12 C63.74 111.68, 95.3 74.34, 114.42 52.09 M34.93 150.82 C56.12 125.44, 75.97 104.08, 112.44 58.73 M34.31 149.44 C62.06 117.92, 89 86.37, 115.01 58.96 M38.83 152.65 C54.91 131.37, 74.14 110.92, 114.81 64.47 M38.68 151.9 C66.28 120.22, 93.74 90.03, 115.42 62.95 M42.46 155.56 C56.77 136.65, 75.16 116.15, 114.62 66.16 M40.38 154.58 C61.01 134.13, 80.11 110.8, 115.52 67.26 M45.33 156.18 C66.21 132.95, 83.25 112.3, 117.43 74.07 M45.22 155.98 C68.31 129.46, 92.3 101.65, 116.71 74.42 M51.38 155.18 C70.33 132.45, 90.65 108.13, 119.61 79.71 M48.85 157.63 C63.63 141.86, 76.62 126.27, 116.97 78.83 M54.07 156.3 C77.52 131.55, 96.84 106.62, 118.13 82.67 M55.29 155.73 C69.14 139.73, 84.4 124.23, 118.1 84.22 M58.79 155.81 C79.81 133.32, 101.4 107.82, 116.35 92.82 M60.63 157.3 C75.15 138.29, 90.61 122.17, 116.84 90.5 M67.9 157 C80.67 138.96, 95.09 119.66, 116.31 101.06 M65.51 157.24 C83.31 135.35, 102.53 116.54, 114.51 101.09 M69.2 158.46 C77.48 147.51, 89.54 135.43, 115.21 107.56 M70.97 157.29 C88.34 137.16, 103.73 117.96, 112.95 107.81 M78.25 154.55 C90.05 141.97, 101.63 128.73, 113.88 117.57 M80.06 153.02 C92.42 139.14, 104.22 124.39, 112.28 115.32 M90.31 149.46 C97.79 139.89, 107.02 131.9, 113.08 120.07 M89.26 148.64 C98.86 136.97, 107.29 127.2, 114.62 118.39" stroke="#fab005" stroke-width="0.5" fill="none"></path><path d="M48.08 1.62 C55.95 -1.45, 66.87 -0.86, 75.2 2.18 C83.53 5.23, 91.81 12.3, 98.06 19.88 C104.32 27.47, 109.3 37.08, 112.72 47.7 C116.14 58.32, 118.76 72.05, 118.59 83.61 C118.42 95.16, 115.89 107.03, 111.7 117.05 C107.52 127.06, 100.58 137.18, 93.49 143.7 C86.4 150.21, 77.47 154.04, 69.16 156.15 C60.85 158.25, 51.95 159.12, 43.63 156.34 C35.31 153.56, 25.62 146.97, 19.22 139.47 C12.82 131.97, 8.48 122.07, 5.23 111.32 C1.97 100.58, -0.67 86.69, -0.31 74.98 C0.04 63.27, 3.27 50.93, 7.34 41.06 C11.42 31.19, 16.89 22.56, 24.13 15.78 C31.36 9, 45.81 2.77, 50.76 0.37 C55.71 -2.03, 53.64 -0.15, 53.82 1.38 M43.44 2.61 C51.01 -1.49, 61.96 -1.53, 70.22 0.84 C78.49 3.2, 86.22 9.81, 93.02 16.8 C99.82 23.79, 106.7 32.71, 111.02 42.78 C115.34 52.84, 118.66 65.72, 118.95 77.18 C119.23 88.64, 116.24 101.27, 112.73 111.51 C109.22 121.75, 104.44 131.37, 97.87 138.64 C91.3 145.91, 81.64 152.03, 73.3 155.12 C64.95 158.22, 56.15 159.32, 47.79 157.2 C39.43 155.09, 29.91 149.2, 23.16 142.43 C16.41 135.67, 11.11 126.66, 7.28 116.62 C3.45 106.59, 0.64 93.8, 0.18 82.23 C-0.29 70.67, 0.98 57.83, 4.47 47.26 C7.97 36.69, 14.76 26.24, 21.16 18.82 C27.56 11.4, 38.79 5.37, 42.87 2.74 C46.95 0.11, 45.16 1.9, 45.64 3.02" stroke="#fab005" stroke-width="1" fill="none"></path></g><g stroke-linecap="round" transform="translate(172.99703865295714 55.54923943882511) rotate(319.7772124577661 30.552216659164515 11.4778849556063)"><path d="M1.8 12.16 C1.8 12.16, 1.8 12.16, 1.8 12.16 M1.8 12.16 C1.8 12.16, 1.8 12.16, 1.8 12.16 M6.13 13.28 C7.12 11.95, 8.28 10.52, 10.06 8.75 M6.13 13.28 C7.38 11.62, 8.25 10.6, 10.06 8.75 M9.8 15.15 C12.9 11.87, 13.92 11.32, 18.33 5.34 M9.8 15.15 C13.27 11.26, 15.89 7.28, 18.33 5.34 M14.13 16.26 C20.33 11.74, 24.26 4.92, 26.6 1.92 M14.13 16.26 C18.81 10.06, 22.73 5.69, 26.6 1.92 M18.46 17.38 C22.34 12.89, 28.62 5.95, 32.24 1.53 M18.46 17.38 C21.24 14.06, 26.35 9.02, 32.24 1.53 M22.14 19.25 C25.74 15.69, 31.26 8.12, 36.57 2.64 M22.14 19.25 C25.24 14.88, 29.88 11.07, 36.57 2.64 M26.47 20.36 C29.56 16.06, 34.44 10.69, 40.25 4.51 M26.47 20.36 C31.52 15.42, 37.29 9.07, 40.25 4.51 M30.15 22.23 C36.21 16.29, 40.08 11.2, 43.92 6.38 M30.15 22.23 C34.95 16.59, 40.26 9.28, 43.92 6.38 M33.82 24.1 C36.98 20.14, 43.12 12.12, 48.25 7.5 M33.82 24.1 C38.75 19.11, 44.22 11.74, 48.25 7.5 M41.43 21.44 C46.12 17.81, 50.09 10.98, 51.93 9.37 M41.43 21.44 C45.54 17.1, 48.99 13.25, 51.93 9.37 M49.04 18.78 C51.76 15.66, 54.07 13.53, 55.6 11.23 M49.04 18.78 C50.83 16.88, 53.49 14.05, 55.6 11.23" stroke="#f08c00" stroke-width="0.5" fill="none"></path><path d="M38.75 3 M38.75 3 C41.99 3.17, 45.07 5.14, 53.35 9 M38.75 3 C44.22 5.5, 48.92 6.8, 53.35 9 M53.35 9 C62.58 12.91, 61.47 10.21, 53.35 15 M53.35 9 C63.29 11.95, 60.8 13.45, 53.35 15 M53.35 15 C50.5 14.97, 46.07 16.28, 38.75 19.96 M53.35 15 C48.78 16.66, 45.12 17.39, 38.75 19.96 M38.75 19.96 C32.77 21.76, 29.39 23.38, 23.25 19.96 M38.75 19.96 C29.19 24.65, 31.66 22.83, 23.25 19.96 M23.25 19.96 C17.09 17.47, 11.42 14.71, 7.75 15 M23.25 19.96 C19.08 18.05, 15.91 17.55, 7.75 15 M7.75 15 C-0.34 11.45, -0.33 10.14, 7.75 9 M7.75 15 C-0.9 10.31, -1.38 12.71, 7.75 9 M7.75 9 C10.46 8.41, 17.41 6.05, 23.25 3 M7.75 9 C12.14 7.46, 16.98 5.88, 23.25 3 M23.25 3 C32.5 -0.52, 31.69 -1.24, 38.75 3 M23.25 3 C29.99 1.17, 30.84 -0.48, 38.75 3" stroke="#f08c00" stroke-width="1" fill="none"></path></g><g stroke-linecap="round" transform="translate(199.5181697627388 110.31345186282914) rotate(341.17783902877596 30.552216659164515 11.4778849556063)"><path d="M1.8 12.16 C1.8 12.16, 1.8 12.16, 1.8 12.16 M1.8 12.16 C1.8 12.16, 1.8 12.16, 1.8 12.16 M6.13 13.28 C6.49 12.1, 7.85 10.92, 10.06 8.75 M6.13 13.28 C7.83 11.25, 9.07 9.83, 10.06 8.75 M9.8 15.15 C11.33 13.44, 16.27 9.1, 18.33 5.34 M9.8 15.15 C13.62 11, 15.75 7.89, 18.33 5.34 M14.13 16.26 C18.54 14.09, 22.07 9.34, 26.6 1.92 M14.13 16.26 C17.22 12.62, 20.77 9.1, 26.6 1.92 M18.46 17.38 C19.66 12.49, 24.01 9.22, 32.24 1.53 M18.46 17.38 C20.97 13.63, 23.85 9.82, 32.24 1.53 M22.14 19.25 C28.28 16.46, 32.16 11.69, 36.57 2.64 M22.14 19.25 C24.52 15.68, 27.7 11.46, 36.57 2.64 M26.47 20.36 C29.66 14.33, 36.12 12.51, 40.25 4.51 M26.47 20.36 C30.21 14.62, 34.89 10.84, 40.25 4.51 M30.15 22.23 C36.3 15.7, 40.39 12.39, 43.92 6.38 M30.15 22.23 C33.42 18.85, 37 13.98, 43.92 6.38 M33.82 24.1 C39.67 18.24, 42.93 14.16, 48.25 7.5 M33.82 24.1 C38.48 19.36, 43.12 11.79, 48.25 7.5 M41.43 21.44 C43.67 17.46, 48.16 12.14, 51.93 9.37 M41.43 21.44 C44.39 18.2, 45.55 15.53, 51.93 9.37 M49.04 18.78 C51.23 17.85, 53.23 15.7, 55.6 11.23 M49.04 18.78 C51.01 16.92, 52.98 14.05, 55.6 11.23" stroke="#f08c00" stroke-width="0.5" fill="none"></path><path d="M38.75 3 M38.75 3 C44.36 6.06, 47.89 7.46, 53.35 9 M38.75 3 C42.18 5.16, 46.05 6.15, 53.35 9 M53.35 9 C62.87 11.91, 59.15 12.52, 53.35 15 M53.35 9 C62.75 13.45, 58.84 13.08, 53.35 15 M53.35 15 C49.2 16.86, 43.9 17.71, 38.75 19.96 M53.35 15 C48.36 16.26, 43.79 18.65, 38.75 19.96 M38.75 19.96 C32.53 23.04, 31.34 23.43, 23.25 19.96 M38.75 19.96 C28.99 25.04, 31.21 20.89, 23.25 19.96 M23.25 19.96 C19.29 19.39, 14.06 16.6, 7.75 15 M23.25 19.96 C19.26 18.59, 15.37 17.77, 7.75 15 M7.75 15 C-0.55 10.61, 0.56 12.79, 7.75 9 M7.75 15 C0.02 12.96, 0.97 13.06, 7.75 9 M7.75 9 C14.58 8.31, 17.53 4.89, 23.25 3 M7.75 9 C14.74 6.59, 19.72 5.04, 23.25 3 M23.25 3 C32.16 -1.04, 30.08 -0.7, 38.75 3 M23.25 3 C32.87 -1.39, 32.32 0.45, 38.75 3" stroke="#f08c00" stroke-width="1" fill="none"></path></g><g stroke-linecap="round" transform="translate(200.81931354540484 176.8266828481701) rotate(7.0678534535069995 30.552216659164515 11.4778849556063)"><path d="M1.8 12.16 C1.8 12.16, 1.8 12.16, 1.8 12.16 M1.8 12.16 C1.8 12.16, 1.8 12.16, 1.8 12.16 M6.13 13.28 C7.29 11.97, 9.71 9.88, 10.06 8.75 M6.13 13.28 C6.87 12.07, 8.2 11.33, 10.06 8.75 M9.8 15.15 C12.1 12.07, 16.49 8.12, 18.33 5.34 M9.8 15.15 C13.47 11.34, 16.18 7.89, 18.33 5.34 M14.13 16.26 C15.93 13.46, 19.42 10.88, 26.6 1.92 M14.13 16.26 C19.11 11.06, 21.39 7.26, 26.6 1.92 M18.46 17.38 C23.52 11.62, 26.89 4.16, 32.24 1.53 M18.46 17.38 C23.43 10.14, 29.1 4.09, 32.24 1.53 M22.14 19.25 C27.83 16.58, 31.08 10.62, 36.57 2.64 M22.14 19.25 C28.41 13.03, 32.64 7.53, 36.57 2.64 M26.47 20.36 C32.95 12.6, 37.34 6.93, 40.25 4.51 M26.47 20.36 C31.43 16.05, 34.89 11.95, 40.25 4.51 M30.15 22.23 C35.8 18.77, 36.47 13.77, 43.92 6.38 M30.15 22.23 C35.98 16.12, 41.19 9.58, 43.92 6.38 M33.82 24.1 C38.75 17.64, 44.5 13.94, 48.25 7.5 M33.82 24.1 C39.48 16.95, 45.58 11.67, 48.25 7.5 M41.43 21.44 C43.01 19.78, 46.87 16.91, 51.93 9.37 M41.43 21.44 C44.21 17.85, 47.5 14.3, 51.93 9.37 M49.04 18.78 C51.58 16.65, 53.54 14.11, 55.6 11.23 M49.04 18.78 C50.9 15.84, 53.9 13.98, 55.6 11.23" stroke="#f08c00" stroke-width="0.5" fill="none"></path><path d="M38.75 3 M38.75 3 C42.36 2.96, 47.09 5.39, 53.35 9 M38.75 3 C42.04 4.05, 45.84 6.56, 53.35 9 M53.35 9 C59.9 13.14, 61.5 10.68, 53.35 15 M53.35 9 C61.95 13.44, 62.08 10.93, 53.35 15 M53.35 15 C48.94 15.3, 43.66 18.7, 38.75 19.96 M53.35 15 C47.9 16.21, 42.35 19.23, 38.75 19.96 M38.75 19.96 C32.44 21.53, 31 21.04, 23.25 19.96 M38.75 19.96 C31.62 21.39, 28.87 23.29, 23.25 19.96 M23.25 19.96 C16.99 16.44, 12.56 16.54, 7.75 15 M23.25 19.96 C20.07 18.6, 17.22 18.21, 7.75 15 M7.75 15 C-1.96 12.68, 1.4 11.26, 7.75 9 M7.75 15 C0.35 11.06, 0.76 13.8, 7.75 9 M7.75 9 C11.78 8.09, 18.35 6.05, 23.25 3 M7.75 9 C11.38 6.79, 14.24 5.74, 23.25 3 M23.25 3 C30.69 -1.12, 29.76 -0.61, 38.75 3 M23.25 3 C32.81 1.79, 32.82 -1.35, 38.75 3" stroke="#f08c00" stroke-width="1" fill="none"></path></g><g stroke-linecap="round" transform="translate(178.12158311444978 229.2493527902726) rotate(28.464223071132054 30.552216659164515 11.4778849556063)"><path d="M1.8 12.16 C1.8 12.16, 1.8 12.16, 1.8 12.16 M1.8 12.16 C1.8 12.16, 1.8 12.16, 1.8 12.16 M6.13 13.28 C7.45 11.39, 8.18 10.64, 10.06 8.75 M6.13 13.28 C7.34 12.12, 8.16 11.03, 10.06 8.75 M9.8 15.15 C10.36 13.25, 13.94 10.47, 18.33 5.34 M9.8 15.15 C12.72 11.26, 15.26 7.82, 18.33 5.34 M14.13 16.26 C18.35 11.83, 19.7 8.93, 26.6 1.92 M14.13 16.26 C18.76 11.78, 23.07 5.82, 26.6 1.92 M18.46 17.38 C20.23 13.53, 26.8 10.09, 32.24 1.53 M18.46 17.38 C20.82 14.79, 24.9 9.96, 32.24 1.53 M22.14 19.25 C24.65 16.06, 29.92 9.39, 36.57 2.64 M22.14 19.25 C26.43 14.07, 31.16 7.58, 36.57 2.64 M26.47 20.36 C31.77 16.47, 34.14 10.26, 40.25 4.51 M26.47 20.36 C31.54 15.99, 34.71 10.21, 40.25 4.51 M30.15 22.23 C31.06 19.38, 37.05 17.14, 43.92 6.38 M30.15 22.23 C33.9 18.79, 35.86 14.58, 43.92 6.38 M33.82 24.1 C38.72 20.98, 39.16 16.41, 48.25 7.5 M33.82 24.1 C38.81 18.27, 45.34 11.82, 48.25 7.5 M41.43 21.44 C45.16 19.34, 47.81 13.86, 51.93 9.37 M41.43 21.44 C44.51 16.25, 48.7 12.49, 51.93 9.37 M49.04 18.78 C51.48 17.74, 53.08 14.53, 55.6 11.23 M49.04 18.78 C50.01 17.37, 51.99 15.52, 55.6 11.23" stroke="#f08c00" stroke-width="0.5" fill="none"></path><path d="M38.75 3 M38.75 3 C44.16 5.78, 50.02 8.22, 53.35 9 M38.75 3 C43.55 4.95, 49.83 6.77, 53.35 9 M53.35 9 C62.42 11.73, 62.45 12.4, 53.35 15 M53.35 9 C63.14 10.7, 63.08 9.77, 53.35 15 M53.35 15 C49.96 17.55, 46.1 16.11, 38.75 19.96 M53.35 15 C48.71 16.9, 43.56 17.89, 38.75 19.96 M38.75 19.96 C32.39 21.1, 31.4 23.6, 23.25 19.96 M38.75 19.96 C32.29 23.87, 29.58 22.47, 23.25 19.96 M23.25 19.96 C16.43 17.41, 10.95 15.02, 7.75 15 M23.25 19.96 C18.06 17.98, 13.65 17.25, 7.75 15 M7.75 15 C0.22 10.32, 1.41 13.32, 7.75 9 M7.75 15 C-1.54 12.23, -1.72 10.53, 7.75 9 M7.75 9 C10.05 6.99, 15.36 6.09, 23.25 3 M7.75 9 C11.62 6.71, 14.45 5.29, 23.25 3 M23.25 3 C32.58 -1.06, 29.16 0.27, 38.75 3 M23.25 3 C33.21 -1.97, 33.26 0.35, 38.75 3" stroke="#f08c00" stroke-width="1" fill="none"></path></g><g stroke-linecap="round" transform="translate(111.65998481889756 267.6124413030099) rotate(86.45917908183816 30.552216659164515 11.477884955606328)"><path d="M1.8 12.16 C1.8 12.16, 1.8 12.16, 1.8 12.16 M1.8 12.16 C1.8 12.16, 1.8 12.16, 1.8 12.16 M6.13 13.28 C7.36 12.57, 8.21 10.75, 10.06 8.75 M6.13 13.28 C7.24 12.36, 7.7 11.45, 10.06 8.75 M9.8 15.15 C11.29 11.46, 15.09 8.18, 18.33 5.34 M9.8 15.15 C12.37 13.26, 13.51 9.81, 18.33 5.34 M14.13 16.26 C17.39 13.9, 19.02 11.67, 26.6 1.92 M14.13 16.26 C17.25 13.21, 20.13 10.56, 26.6 1.92 M18.46 17.38 C20.68 14.71, 22.44 12.24, 32.24 1.53 M18.46 17.38 C23.19 12.24, 27.11 7.3, 32.24 1.53 M22.14 19.25 C26.97 16.51, 31.21 8.27, 36.57 2.64 M22.14 19.25 C27.69 14.09, 32.43 7.49, 36.57 2.64 M26.47 20.36 C32.35 15.6, 37.59 7.39, 40.25 4.51 M26.47 20.36 C30.04 15.36, 33.63 11.14, 40.25 4.51 M30.15 22.23 C33.25 16.77, 35.04 13.21, 43.92 6.38 M30.15 22.23 C35.18 18, 38.16 12.43, 43.92 6.38 M33.82 24.1 C37.51 19.36, 39.31 15.74, 48.25 7.5 M33.82 24.1 C39.56 18.39, 44.75 10.94, 48.25 7.5 M41.43 21.44 C42.96 17.28, 46.29 17.69, 51.93 9.37 M41.43 21.44 C43.5 18.67, 45.35 15.47, 51.93 9.37 M49.04 18.78 C51.3 15.56, 53.29 13.88, 55.6 11.23 M49.04 18.78 C51.11 16.57, 52.82 14.56, 55.6 11.23" stroke="#f08c00" stroke-width="0.5" fill="none"></path><path d="M38.75 3 M38.75 3 C45.22 3.86, 50.08 8.69, 53.35 9 M38.75 3 C42.99 4.47, 45.93 5.93, 53.35 9 M53.35 9 C61.57 13.65, 59.69 11.23, 53.35 15 M53.35 9 C59.22 10.59, 60.68 12.46, 53.35 15 M53.35 15 C50.55 16.16, 45.99 18.56, 38.75 19.96 M53.35 15 C49.79 17.24, 45.09 18.11, 38.75 19.96 M38.75 19.96 C31.27 24.88, 31.03 24.6, 23.25 19.96 M38.75 19.96 C28.7 23.63, 29.65 23.15, 23.25 19.96 M23.25 19.96 C21.07 19.3, 17.21 19.48, 7.75 15 M23.25 19.96 C17.8 17.96, 10.89 16.05, 7.75 15 M7.75 15 C1.35 12.59, -1.3 11.27, 7.75 9 M7.75 15 C0.09 12.61, -2.05 11.83, 7.75 9 M7.75 9 C11.8 5.85, 14 6.2, 23.25 3 M7.75 9 C11.49 8.38, 13.74 5.49, 23.25 3 M23.25 3 C32.4 -1.95, 32.03 0.89, 38.75 3 M23.25 3 C30.49 0.02, 32.15 1.97, 38.75 3" stroke="#f08c00" stroke-width="1" fill="none"></path></g><g stroke-linecap="round" transform="translate(45.115774219684 244.88889452716109) rotate(113.38522105721357 30.552216659164515 11.477884955606328)"><path d="M1.8 12.16 C1.8 12.16, 1.8 12.16, 1.8 12.16 M1.8 12.16 C1.8 12.16, 1.8 12.16, 1.8 12.16 M6.13 13.28 C7.91 11.98, 8.51 10.35, 10.06 8.75 M6.13 13.28 C7.27 12.35, 8.06 10.92, 10.06 8.75 M9.8 15.15 C10.66 13.66, 15.17 9.32, 18.33 5.34 M9.8 15.15 C13.88 10.61, 17.18 6.65, 18.33 5.34 M14.13 16.26 C19.85 11.02, 24.25 6.54, 26.6 1.92 M14.13 16.26 C18.91 10.96, 21.76 6.26, 26.6 1.92 M18.46 17.38 C21.43 14.7, 23.47 11.45, 32.24 1.53 M18.46 17.38 C22.26 13.61, 27.26 8.75, 32.24 1.53 M22.14 19.25 C28.04 14.65, 33.44 7.88, 36.57 2.64 M22.14 19.25 C25.06 15.19, 28.35 13.13, 36.57 2.64 M26.47 20.36 C33.59 16.1, 35.49 9.2, 40.25 4.51 M26.47 20.36 C31.36 15.32, 36.84 8.21, 40.25 4.51 M30.15 22.23 C31.99 17.87, 36.17 11.95, 43.92 6.38 M30.15 22.23 C34.64 16.44, 39.77 9.33, 43.92 6.38 M33.82 24.1 C37.44 15.68, 46.32 9.16, 48.25 7.5 M33.82 24.1 C38.83 18.79, 44.75 12.5, 48.25 7.5 M41.43 21.44 C43.96 18.27, 48.94 15.7, 51.93 9.37 M41.43 21.44 C45.56 17.15, 48.1 13.75, 51.93 9.37 M49.04 18.78 C51.35 16.19, 53.62 12.9, 55.6 11.23 M49.04 18.78 C51.85 16.27, 53.57 13.23, 55.6 11.23" stroke="#f08c00" stroke-width="0.5" fill="none"></path><path d="M38.75 3 M38.75 3 C42.74 6.35, 48.65 6.84, 53.35 9 M38.75 3 C42.98 5.43, 47.88 6.11, 53.35 9 M53.35 9 C62.58 10.01, 62.39 12.84, 53.35 15 M53.35 9 C59.39 10, 61.13 10.88, 53.35 15 M53.35 15 C47.33 18.17, 43.46 17.61, 38.75 19.96 M53.35 15 C47.57 16.17, 42.7 18.27, 38.75 19.96 M38.75 19.96 C30.08 24.9, 31.54 24.27, 23.25 19.96 M38.75 19.96 C30.52 21.21, 29.73 20.96, 23.25 19.96 M23.25 19.96 C18.01 20.04, 13.88 16.78, 7.75 15 M23.25 19.96 C18.87 18.77, 13.61 17.09, 7.75 15 M7.75 15 C-1.18 13, 0.37 12.74, 7.75 9 M7.75 15 C1.5 10.27, 0.97 10.18, 7.75 9 M7.75 9 C11.89 8.86, 16.43 5.55, 23.25 3 M7.75 9 C12.19 6.81, 16.64 5.24, 23.25 3 M23.25 3 C30.62 1.81, 29.62 -0.25, 38.75 3 M23.25 3 C31.71 0.82, 28.89 -0.68, 38.75 3" stroke="#f08c00" stroke-width="1" fill="none"></path></g><g stroke-linecap="round" transform="translate(10.37730053008795 181.98478855802506) rotate(155.16400620774766 30.552216659164515 11.4778849556063)"><path d="M1.8 12.16 C1.8 12.16, 1.8 12.16, 1.8 12.16 M1.8 12.16 C1.8 12.16, 1.8 12.16, 1.8 12.16 M6.13 13.28 C6.73 11.99, 8.19 11.16, 10.06 8.75 M6.13 13.28 C6.92 12.17, 7.83 11.03, 10.06 8.75 M9.8 15.15 C13.3 11.77, 15.34 8.5, 18.33 5.34 M9.8 15.15 C12.3 11.64, 15.66 8.43, 18.33 5.34 M14.13 16.26 C19.01 13.31, 19.34 10.33, 26.6 1.92 M14.13 16.26 C17.09 12.47, 20.95 7.76, 26.6 1.92 M18.46 17.38 C23.47 9.47, 28.26 2.96, 32.24 1.53 M18.46 17.38 C22.14 13.56, 26.4 7.82, 32.24 1.53 M22.14 19.25 C27.29 15.31, 30.3 9.83, 36.57 2.64 M22.14 19.25 C25.9 15.87, 28.26 11.64, 36.57 2.64 M26.47 20.36 C29.59 17.06, 34.31 14.24, 40.25 4.51 M26.47 20.36 C30.06 15.79, 33.57 11.24, 40.25 4.51 M30.15 22.23 C32.49 17.61, 38.19 14.32, 43.92 6.38 M30.15 22.23 C32.57 19.31, 36.14 16.42, 43.92 6.38 M33.82 24.1 C39.35 19.85, 43.19 14.81, 48.25 7.5 M33.82 24.1 C37.3 20.26, 41.65 16.03, 48.25 7.5 M41.43 21.44 C43.29 18.66, 47.44 16.59, 51.93 9.37 M41.43 21.44 C44.75 18.56, 46.22 16.36, 51.93 9.37 M49.04 18.78 C51.32 16.14, 52.59 15.24, 55.6 11.23 M49.04 18.78 C51.39 16.47, 52.83 14.25, 55.6 11.23" stroke="#f08c00" stroke-width="0.5" fill="none"></path><path d="M38.75 3 M38.75 3 C43.58 5.12, 51.48 6.41, 53.35 9 M38.75 3 C43.71 4.47, 48.12 6.81, 53.35 9 M53.35 9 C60.22 12.88, 62.76 10.08, 53.35 15 M53.35 9 C59.13 10.4, 61.83 9.71, 53.35 15 M53.35 15 C48.96 15.1, 45.93 19.2, 38.75 19.96 M53.35 15 C49.35 16.85, 44.31 18.25, 38.75 19.96 M38.75 19.96 C31.94 24.46, 30.7 23.49, 23.25 19.96 M38.75 19.96 C32.96 22.13, 30.9 20.77, 23.25 19.96 M23.25 19.96 C18.92 18.21, 13.82 18.03, 7.75 15 M23.25 19.96 C17.33 18.04, 11.98 15.97, 7.75 15 M7.75 15 C0.39 11.28, 1.52 11.99, 7.75 9 M7.75 15 C2.09 13.65, -1.35 13.72, 7.75 9 M7.75 9 C12.23 8.67, 17.44 5.99, 23.25 3 M7.75 9 C13.34 6.49, 17.2 5.64, 23.25 3 M23.25 3 C32.87 1.61, 31.77 -0.24, 38.75 3 M23.25 3 C32.49 0.56, 31.93 -0.02, 38.75 3" stroke="#f08c00" stroke-width="1" fill="none"></path></g><g stroke-linecap="round" transform="translate(8.208727558977671 106.77661261232771) rotate(199.71706004480805 30.552216659164515 11.4778849556063)"><path d="M1.8 12.16 C1.8 12.16, 1.8 12.16, 1.8 12.16 M1.8 12.16 C1.8 12.16, 1.8 12.16, 1.8 12.16 M6.13 13.28 C7.27 11.48, 8.81 10.7, 10.06 8.75 M6.13 13.28 C7.22 11.7, 8.85 10.31, 10.06 8.75 M9.8 15.15 C11.76 12.06, 16.66 7.77, 18.33 5.34 M9.8 15.15 C11.82 11.67, 14.43 9.92, 18.33 5.34 M14.13 16.26 C17.09 10.31, 21.4 8.77, 26.6 1.92 M14.13 16.26 C17.04 13.47, 19.08 10.3, 26.6 1.92 M18.46 17.38 C24.16 12.32, 27.74 7.48, 32.24 1.53 M18.46 17.38 C22.46 13.69, 26.08 8.7, 32.24 1.53 M22.14 19.25 C24.73 16.04, 30.81 9.18, 36.57 2.64 M22.14 19.25 C24.35 15.29, 28.05 12.64, 36.57 2.64 M26.47 20.36 C32.22 16.25, 32.86 10.48, 40.25 4.51 M26.47 20.36 C31.83 15.02, 37.25 8.58, 40.25 4.51 M30.15 22.23 C34.42 15.2, 39 10.91, 43.92 6.38 M30.15 22.23 C35.23 16.82, 40.95 9.95, 43.92 6.38 M33.82 24.1 C36.05 18.12, 42.29 14.27, 48.25 7.5 M33.82 24.1 C39.96 17.14, 45.42 11.76, 48.25 7.5 M41.43 21.44 C47.17 16.28, 50.67 12.26, 51.93 9.37 M41.43 21.44 C43.2 18.02, 46.57 16.84, 51.93 9.37 M49.04 18.78 C52.16 16.16, 54.41 13.04, 55.6 11.23 M49.04 18.78 C51.69 16.54, 53.05 13.93, 55.6 11.23" stroke="#f08c00" stroke-width="0.5" fill="none"></path><path d="M38.75 3 M38.75 3 C42.86 5.75, 47.83 4.73, 53.35 9 M38.75 3 C43.79 5.89, 50.92 8.15, 53.35 9 M53.35 9 C62.97 10.04, 59.67 13.72, 53.35 15 M53.35 9 C59.41 9.95, 59.4 11.2, 53.35 15 M53.35 15 C47.75 16.86, 44.43 16.83, 38.75 19.96 M53.35 15 C49.44 16, 45.67 17.53, 38.75 19.96 M38.75 19.96 C29.26 22.86, 32.04 23.83, 23.25 19.96 M38.75 19.96 C32.79 24.35, 29.99 25.24, 23.25 19.96 M23.25 19.96 C17.02 17.9, 14.05 18.27, 7.75 15 M23.25 19.96 C20.15 18.74, 16.91 17.46, 7.75 15 M7.75 15 C1.3 10.92, 1.06 10.46, 7.75 9 M7.75 15 C1.01 10.47, -0.72 13.39, 7.75 9 M7.75 9 C13.9 6.2, 17.39 4.09, 23.25 3 M7.75 9 C13.14 7.78, 17.25 4.87, 23.25 3 M23.25 3 C29.43 1.87, 32.68 -1.49, 38.75 3 M23.25 3 C30.33 -0.4, 29.04 -1.4, 38.75 3" stroke="#f08c00" stroke-width="1" fill="none"></path></g><g stroke-linecap="round" transform="translate(52.98459614342664 41.33217830560562) rotate(239.8136973669714 30.552216659164515 11.4778849556063)"><path d="M1.8 12.16 C1.8 12.16, 1.8 12.16, 1.8 12.16 M1.8 12.16 C1.8 12.16, 1.8 12.16, 1.8 12.16 M6.13 13.28 C7.65 11.99, 8.82 10.84, 10.06 8.75 M6.13 13.28 C7.52 11.45, 9.03 9.94, 10.06 8.75 M9.8 15.15 C14.13 11.7, 16.39 6.69, 18.33 5.34 M9.8 15.15 C13.49 10.83, 15.57 8.39, 18.33 5.34 M14.13 16.26 C16.42 13.05, 19.63 9.49, 26.6 1.92 M14.13 16.26 C16.15 12.57, 20.19 9.4, 26.6 1.92 M18.46 17.38 C22.47 11.96, 25.02 10.92, 32.24 1.53 M18.46 17.38 C22.64 12.84, 27.79 6.9, 32.24 1.53 M22.14 19.25 C26.61 15.95, 29.28 9.57, 36.57 2.64 M22.14 19.25 C25.97 15.38, 29.1 11.36, 36.57 2.64 M26.47 20.36 C30.13 14.07, 37.53 9.4, 40.25 4.51 M26.47 20.36 C28.83 16.83, 31.59 13.7, 40.25 4.51 M30.15 22.23 C34.87 18.28, 35.4 13.52, 43.92 6.38 M30.15 22.23 C35.14 15.92, 40 9.25, 43.92 6.38 M33.82 24.1 C37.5 18.73, 44.41 13, 48.25 7.5 M33.82 24.1 C37.49 19.48, 39.91 16.71, 48.25 7.5 M41.43 21.44 C42.61 18.04, 46.14 16.53, 51.93 9.37 M41.43 21.44 C44.35 17.75, 48.86 13.59, 51.93 9.37 M49.04 18.78 C51.35 16.47, 53.33 15.32, 55.6 11.23 M49.04 18.78 C51.72 15.56, 53.85 12.83, 55.6 11.23" stroke="#f08c00" stroke-width="0.5" fill="none"></path><path d="M38.75 3 M38.75 3 C42.34 4.28, 47.93 6.09, 53.35 9 M38.75 3 C44.23 5.85, 48.94 7.63, 53.35 9 M53.35 9 C61.07 11.99, 62.35 10.02, 53.35 15 M53.35 9 C60.5 12.54, 59.45 11.51, 53.35 15 M53.35 15 C46.82 16.62, 43.24 17.88, 38.75 19.96 M53.35 15 C47.96 16.98, 43.03 19.09, 38.75 19.96 M38.75 19.96 C31.11 21.06, 32.59 23.53, 23.25 19.96 M38.75 19.96 C31.61 22.76, 32.9 21.99, 23.25 19.96 M23.25 19.96 C17.72 17.6, 14.57 15.87, 7.75 15 M23.25 19.96 C19.42 19.72, 17.35 18.07, 7.75 15 M7.75 15 C-1.65 12.84, 1.27 13.3, 7.75 9 M7.75 15 C-1.41 13.06, 1.3 13.52, 7.75 9 M7.75 9 C10.21 7.04, 13.56 5.68, 23.25 3 M7.75 9 C11.73 7.22, 15.38 5.82, 23.25 3 M23.25 3 C32.23 0.74, 29.7 1.75, 38.75 3 M23.25 3 C31.85 -2.22, 30.89 1.03, 38.75 3" stroke="#f08c00" stroke-width="1" fill="none"></path></g><g stroke-linecap="round" transform="translate(122.42540063976685 28.50661816218178) rotate(281.0625613688418 30.552216659164515 11.4778849556063)"><path d="M1.8 12.16 C1.8 12.16, 1.8 12.16, 1.8 12.16 M1.8 12.16 C1.8 12.16, 1.8 12.16, 1.8 12.16 M6.13 13.28 C7.01 11.97, 8.6 10.86, 10.06 8.75 M6.13 13.28 C7.4 12.19, 8.49 10.44, 10.06 8.75 M9.8 15.15 C12.09 13, 15.88 10.21, 18.33 5.34 M9.8 15.15 C11.28 12.6, 13.4 10.42, 18.33 5.34 M14.13 16.26 C18.12 12.5, 22.77 6.87, 26.6 1.92 M14.13 16.26 C18.9 11.96, 22.39 7.36, 26.6 1.92 M18.46 17.38 C21.97 13.24, 25.17 7.59, 32.24 1.53 M18.46 17.38 C23.33 11.13, 30.1 4.49, 32.24 1.53 M22.14 19.25 C25.4 14.22, 29.96 9.94, 36.57 2.64 M22.14 19.25 C27 14.32, 31.03 9.81, 36.57 2.64 M26.47 20.36 C30.43 14.57, 32.32 11.68, 40.25 4.51 M26.47 20.36 C29.32 16.22, 33.38 14.21, 40.25 4.51 M30.15 22.23 C35.93 18.43, 37.82 13, 43.92 6.38 M30.15 22.23 C34.87 16.59, 39.23 10.65, 43.92 6.38 M33.82 24.1 C38.32 21.76, 40.41 16.36, 48.25 7.5 M33.82 24.1 C37.91 19.07, 42.14 15.8, 48.25 7.5 M41.43 21.44 C42.74 18.02, 46.93 15.95, 51.93 9.37 M41.43 21.44 C43.25 17.76, 46.65 14.66, 51.93 9.37 M49.04 18.78 C50.25 16.94, 51.59 14.44, 55.6 11.23 M49.04 18.78 C50.99 16.79, 51.69 15.12, 55.6 11.23" stroke="#f08c00" stroke-width="0.5" fill="none"></path><path d="M38.75 3 M38.75 3 C43.48 4.37, 47.11 7.08, 53.35 9 M38.75 3 C42.29 4.27, 46.75 7.27, 53.35 9 M53.35 9 C59.83 13.18, 59.81 11.88, 53.35 15 M53.35 9 C59.61 12.22, 60.82 13.84, 53.35 15 M53.35 15 C49.2 17.14, 41.83 17.88, 38.75 19.96 M53.35 15 C48.39 17.03, 44.31 18.43, 38.75 19.96 M38.75 19.96 C29.28 21.62, 31.99 21.54, 23.25 19.96 M38.75 19.96 C29.86 24.67, 29.22 22.9, 23.25 19.96 M23.25 19.96 C17.99 19.15, 10.96 17.49, 7.75 15 M23.25 19.96 C19.46 18.61, 15.19 17.58, 7.75 15 M7.75 15 C-0.86 10.41, 0.43 12.08, 7.75 9 M7.75 15 C0.41 13.7, 1.54 13.12, 7.75 9 M7.75 9 C13.48 7.61, 14.77 4.72, 23.25 3 M7.75 9 C12.09 7.36, 17.67 4.97, 23.25 3 M23.25 3 C32.29 -1.6, 31.03 0.47, 38.75 3 M23.25 3 C31.57 -1.6, 31.79 2, 38.75 3" stroke="#f08c00" stroke-width="1" fill="none"></path></g></svg>