<?xml version="1.0" standalone="no"?>
<!DOCTYPE svg PUBLIC "-//W3C//DTD SVG 20010904//EN"
 "http://www.w3.org/TR/2001/REC-SVG-20010904/DTD/svg10.dtd">
<svg version="1.0" xmlns="http://www.w3.org/2000/svg"
 width="824.000000pt" height="824.000000pt" viewBox="0 0 824.000000 824.000000"
 preserveAspectRatio="xMidYMid meet">
<metadata>
Created by potrace 1.14, written by Peter Selinger 2001-2017
</metadata>
<g transform="translate(0.000000,824.000000) scale(0.100000,-0.100000)"
fill="#000000" stroke="none">
<path d="M5115 7993 c-26 -4 -139 -27 -185 -38 -115 -27 -373 -160 -425 -219
-5 -7 -25 -22 -43 -35 -40 -28 -141 -132 -251 -257 -54 -61 -261 -342 -261
-354 0 -5 -4 -10 -10 -10 -5 0 -10 -6 -10 -14 0 -8 -3 -16 -7 -18 -7 -3 -47
-60 -78 -110 -103 -167 -205 -341 -205 -348 0 -6 -3 -10 -8 -10 -4 0 -15 -17
-25 -37 -9 -21 -25 -51 -35 -68 -84 -140 -335 -639 -481 -957 -53 -114 -198
-440 -226 -508 -44 -105 -48 -115 -50 -120 -3 -7 -34 -81 -45 -105 -5 -11 -35
-85 -68 -165 -32 -80 -63 -154 -67 -165 -5 -11 -9 -22 -10 -25 -1 -3 -6 -16
-12 -30 -15 -35 -76 -191 -135 -345 -27 -71 -54 -139 -59 -150 -11 -25 -60
-156 -63 -170 -2 -5 -8 -23 -15 -40 -6 -16 -16 -41 -21 -55 -5 -14 -15 -38
-21 -55 -7 -16 -13 -34 -15 -40 -2 -9 -28 -81 -80 -220 -8 -22 -16 -44 -18
-50 -2 -5 -8 -22 -13 -36 -6 -14 -17 -45 -24 -70 -7 -24 -18 -47 -24 -51 -5
-4 -7 -8 -3 -8 4 0 -4 -30 -18 -67 -29 -77 -115 -327 -175 -508 -22 -66 -42
-127 -46 -135 -3 -8 -7 -17 -8 -20 -1 -3 -7 -25 -15 -50 -7 -25 -17 -49 -22
-55 -5 -5 -55 -10 -111 -11 -110 -2 -327 -12 -392 -19 -22 -2 -61 -6 -87 -9
-27 -3 -67 -8 -90 -11 -24 -2 -65 -9 -93 -15 -27 -6 -68 -13 -89 -16 -22 -3
-48 -10 -58 -15 -10 -5 -18 -7 -18 -5 0 3 -11 1 -25 -4 -14 -5 -37 -12 -51
-14 -30 -6 -120 -33 -149 -46 -11 -5 -58 -25 -105 -45 -47 -20 -101 -46 -120
-57 -46 -27 -112 -70 -127 -83 -6 -5 -26 -21 -44 -35 -32 -24 -143 -134 -164
-162 -82 -109 -109 -175 -109 -275 -1 -50 4 -87 11 -94 7 -7 9 -20 4 -33 -24
-62 2 -274 42 -347 46 -87 142 -190 230 -249 20 -14 37 -28 37 -32 0 -5 4 -8
10 -8 5 0 38 -17 72 -38 60 -36 107 -59 118 -59 3 0 23 -9 45 -20 33 -17 183
-69 320 -113 39 -12 173 -47 205 -54 47 -9 72 -15 88 -20 9 -3 31 -8 47 -11
17 -2 41 -7 55 -10 67 -14 94 -19 169 -29 23 -3 57 -9 75 -12 17 -3 49 -8 71
-9 22 -2 40 -4 40 -5 0 -2 22 -5 115 -14 36 -3 92 -9 125 -12 263 -27 826 -35
1315 -20 135 5 295 10 355 11 61 2 180 6 265 9 630 24 1401 24 1820 1 41 -2
127 -6 190 -10 63 -3 133 -7 155 -9 22 -2 81 -7 130 -11 50 -3 115 -9 145 -12
68 -7 301 -7 395 0 65 5 111 10 206 23 20 2 54 7 75 9 21 2 50 7 64 10 14 3
39 7 55 10 17 3 41 8 55 10 14 3 34 7 45 9 73 14 263 73 283 89 6 5 12 7 12 4
0 -13 198 95 265 143 152 111 296 293 391 495 24 52 44 97 44 101 0 3 14 23
30 44 44 55 63 106 57 154 -6 46 -32 98 -57 112 -44 25 -131 65 -149 69 -12 3
-31 8 -43 11 -46 12 -133 8 -163 -8 -78 -42 -180 -74 -266 -84 -30 -3 -67 -8
-84 -10 -38 -5 -349 -4 -395 1 -19 2 -69 6 -110 10 -77 6 -117 10 -193 21 -23
3 -55 7 -72 9 -16 2 -50 6 -75 10 -25 4 -54 9 -65 10 -11 1 -20 3 -20 4 0 1
-18 4 -40 6 -22 1 -56 6 -75 9 -19 4 -48 9 -65 12 -31 5 -124 21 -160 28 -11
2 -65 11 -120 21 -55 9 -107 19 -115 22 -8 4 -18 5 -22 5 -9 -2 -16 27 -23 98
-3 30 -7 73 -9 95 -8 64 -17 157 -21 200 -2 22 -7 63 -10 90 -6 51 -10 86 -19
185 -3 30 -8 71 -11 90 -3 19 -7 55 -10 80 -7 78 -15 153 -21 200 -2 25 -7 65
-9 90 -6 53 -14 122 -20 170 -2 19 -7 64 -11 100 -3 36 -8 79 -9 95 -2 17 -6
55 -9 85 -3 30 -8 66 -11 80 -2 14 -7 59 -10 100 -2 41 -7 86 -9 100 -2 14 -7
52 -10 85 -4 33 -8 76 -11 95 -12 96 -16 139 -21 185 -2 28 -6 70 -9 95 -3 25
-8 64 -10 88 -8 74 -15 145 -21 192 -3 25 -7 65 -10 90 -2 25 -6 61 -8 80 -10
94 -16 149 -21 190 -3 25 -7 65 -9 90 -3 25 -7 65 -10 90 -4 25 -8 68 -11 95
-3 28 -8 75 -11 105 -3 30 -8 71 -10 90 -2 19 -6 58 -8 85 -3 28 -7 64 -10 80
-2 17 -8 64 -12 105 -9 99 -12 125 -14 125 0 0 -3 23 -5 50 -4 50 -13 135 -20
190 -6 41 -19 166 -30 280 -4 33 -8 74 -10 90 -2 17 -6 57 -10 90 -4 33 -8 74
-10 90 -2 17 -6 57 -9 90 -4 33 -8 76 -10 95 -2 19 -7 62 -11 95 -3 33 -8 76
-10 95 -8 66 -18 155 -20 182 -3 33 4 34 185 32 160 -1 221 -8 315 -36 114
-33 149 -54 367 -219 62 -48 145 -103 183 -124 39 -20 76 -42 84 -49 8 -6 17
-10 20 -10 7 2 44 -11 76 -25 32 -15 132 -50 157 -55 13 -3 41 -10 63 -16 39
-10 80 -20 100 -24 6 -1 16 -5 24 -10 23 -14 4 27 -60 132 -32 53 -59 102 -59
109 0 6 -3 13 -7 15 -8 3 -15 16 -113 206 -30 59 -58 109 -61 112 -3 3 -22 38
-43 78 -20 40 -68 126 -107 189 -38 64 -69 120 -69 124 0 4 -4 9 -8 11 -9 3
-72 93 -72 102 0 3 -9 16 -19 28 -10 13 -51 64 -90 113 -79 99 -201 227 -276
290 -27 22 -53 45 -59 50 -23 21 -103 73 -143 93 -40 21 -175 74 -181 72 -1
-1 -28 4 -60 11 -31 7 -65 14 -74 15 -10 1 -19 3 -20 4 -5 4 -283 7 -313 3z"/>
</g>
</svg>
