<svg version="1.1" xmlns="http://www.w3.org/2000/svg" viewBox="0 0 617.9999521290599 399.80037818042547" width="1235.9999042581198" height="799.6007563608509">
  <!-- svg-source:excalidraw -->
  
  <defs>
    <style class="style-fonts">
      @font-face {
        font-family: "Virgil";
        src: url("https://excalidraw.com/Virgil.woff2");
      }
      @font-face {
        font-family: "Cascadia";
        src: url("https://excalidraw.com/Cascadia.woff2");
      }
    </style>
  </defs>
  <rect x="0" y="0" width="617.9999521290599" height="399.80037818042547" fill="#ffffff"></rect><g stroke-linecap="round" transform="translate(236.23423250915516 74.9551209938007) rotate(0 30.890160128294156 28.26300294406279)"><path d="M20.15 1.24 C25.96 -1.06, 35.62 -0.01, 41.93 2.17 C48.24 4.35, 54.93 9.08, 58 14.33 C61.08 19.57, 61.59 27.81, 60.39 33.66 C59.19 39.51, 55.56 45.71, 50.82 49.44 C46.07 53.18, 38.5 55.92, 31.92 56.08 C25.33 56.23, 16.69 54.27, 11.31 50.36 C5.94 46.45, 0.77 38.53, -0.34 32.62 C-1.46 26.71, -0.09 20.44, 4.64 14.89 C9.38 9.34, 23.01 1.71, 28.06 -0.68 C33.11 -3.07, 34.88 0.01, 34.92 0.53 M21.1 1.1 C26.88 -1.13, 36.52 -1.74, 42.53 0.71 C48.53 3.16, 54.06 10.23, 57.15 15.81 C60.25 21.38, 62.32 28.24, 61.08 34.14 C59.83 40.04, 54.9 47.4, 49.7 51.21 C44.49 55.02, 36.33 57.34, 29.84 56.99 C23.36 56.64, 15.88 53.31, 10.78 49.1 C5.68 44.89, 0.44 37.47, -0.77 31.71 C-1.97 25.95, -0.23 19.71, 3.56 14.53 C7.35 9.35, 18.9 2.92, 21.97 0.65 C25.03 -1.62, 22.1 0.48, 21.96 0.92" stroke="#1e1e1e" stroke-width="1" fill="none"></path></g><g stroke-linecap="round" transform="translate(122.74180808540177 242.1395916608823) rotate(0 30.890160128294156 28.26300294406279)"><path d="M22.23 0.42 C28.19 -1.4, 38.06 -0.79, 44.25 1.99 C50.45 4.78, 56.49 11.43, 59.39 17.11 C62.29 22.79, 63.44 30.29, 61.66 36.09 C59.87 41.88, 54.34 48.45, 48.66 51.87 C42.99 55.3, 34.35 57.35, 27.62 56.63 C20.9 55.92, 12.87 51.94, 8.31 47.59 C3.75 43.23, 0.62 36.39, 0.25 30.49 C-0.12 24.59, 0.96 17.23, 6.11 12.2 C11.26 7.16, 25.9 2.17, 31.16 0.27 C36.41 -1.64, 37.84 0.24, 37.63 0.76 M39.32 1.66 C45.61 3.12, 53.39 8.85, 56.9 13.75 C60.41 18.64, 61.42 25.08, 60.4 31.03 C59.38 36.98, 55.37 45.11, 50.79 49.44 C46.21 53.77, 39.56 56.57, 32.92 57.01 C26.29 57.45, 16.51 55.69, 10.95 52.09 C5.39 48.49, 1.03 41.72, -0.41 35.39 C-1.86 29.07, -0.84 19.88, 2.29 14.13 C5.41 8.38, 11.87 3.27, 18.31 0.9 C24.76 -1.47, 37.08 -0.16, 40.93 -0.09 C44.78 -0.01, 41.62 0.85, 41.43 1.34" stroke="#1e1e1e" stroke-width="1" fill="none"></path></g><g stroke-linecap="round"><g transform="translate(250.43466813470877 127.16891261159913) rotate(0 -41.53015937137252 57.68257108132188)"><path d="M0.32 -0.76 C-13.61 18.32, -69.67 95.49, -83.38 115.08 M-0.97 1.45 C-14.53 20.6, -67.51 97.24, -81.07 116.13" stroke="#1e1e1e" stroke-width="1" fill="none"></path></g></g><mask></mask><g stroke-linecap="round" transform="translate(417.29361641015817 220.95765815361767) rotate(0 30.890160128294156 28.26300294406279)"><path d="M43.2 1.71 C48.87 3.62, 54.57 10.81, 57.57 16.16 C60.58 21.51, 62.66 27.9, 61.21 33.81 C59.76 39.73, 54.27 47.99, 48.88 51.64 C43.49 55.29, 35.33 56.14, 28.88 55.72 C22.43 55.31, 15.06 53.16, 10.2 49.16 C5.34 45.16, 0.49 37.82, -0.29 31.73 C-1.06 25.64, 1.73 17.74, 5.53 12.63 C9.34 7.52, 15.48 2.36, 22.52 1.08 C29.56 -0.21, 43.05 3.85, 47.77 4.91 C52.49 5.97, 51.23 7.24, 50.84 7.43 M26.76 0.55 C32.73 -0.7, 41.54 2.15, 46.85 5.17 C52.16 8.19, 56.68 13.06, 58.62 18.67 C60.56 24.29, 60.39 33.31, 58.48 38.87 C56.57 44.43, 52.87 49.41, 47.16 52.03 C41.44 54.66, 30.96 55.48, 24.18 54.62 C17.4 53.76, 10.44 51.48, 6.45 46.89 C2.46 42.29, 0.19 33.26, 0.24 27.03 C0.3 20.8, 2.28 14.1, 6.77 9.49 C11.27 4.88, 23.98 0.96, 27.23 -0.63 C30.48 -2.22, 26.26 -0.69, 26.27 -0.04" stroke="#1e1e1e" stroke-width="1" fill="none"></path></g><g stroke-linecap="round"><g transform="translate(186.8505708609589 274.1403575959214) rotate(0 115.08691563733413 -9.118564566121677)"><path d="M0.13 -0.65 C38.86 -3.72, 192.93 -15.27, 231.43 -18.15 M-1.26 1.63 C37.37 -1.81, 191.83 -16.3, 230.39 -19.86" stroke="#1e1e1e" stroke-width="1" fill="none"></path></g></g><mask></mask><g stroke-linecap="round"><g transform="translate(281.6656693554178 128.04973790660375) rotate(0 70.37960696455605 52.16252313981669)"><path d="M1.19 -0.54 C24.61 16.71, 117.22 86.21, 140.4 103.77 M0.36 1.8 C23.66 19.15, 116.44 87.45, 139.65 104.86" stroke="#1e1e1e" stroke-width="1" fill="none"></path></g><g transform="translate(281.6656693554178 128.04973790660375) rotate(0 70.37960696455605 52.16252313981669)"><path d="M110.01 96.94 C117.92 98.96, 128.12 102.67, 139.33 104.29 M110.59 96.39 C116.65 97.07, 122.37 100.65, 139.77 105.01" stroke="#1e1e1e" stroke-width="1" fill="none"></path></g><g transform="translate(281.6656693554178 128.04973790660375) rotate(0 70.37960696455605 52.16252313981669)"><path d="M122.24 80.46 C126.61 87.42, 133.24 95.96, 139.33 104.29 M122.82 79.91 C126.27 84.06, 129.44 91.06, 139.77 105.01" stroke="#1e1e1e" stroke-width="1" fill="none"></path></g></g><mask></mask><g stroke-linecap="round"><g transform="translate(148.20148878623218 29.58878862586468) rotate(0 50.53092516990705 26.240443081861766)"><path d="M-0.34 0.82 C16.18 9.29, 82.54 42.54, 99.26 51.21 M1.68 0.2 C18.55 8.77, 85.18 43.83, 101.4 52.28" stroke="#1e1e1e" stroke-width="1" fill="none"></path></g></g><mask></mask><g stroke-linecap="round" transform="translate(116.33093180784613 10) rotate(0 15.291893056320077 13.390459321668772)"><path d="M20.55 0.55 C23.53 1.33, 26.06 4.55, 27.8 6.85 C29.54 9.16, 31.28 11.6, 30.97 14.37 C30.66 17.15, 28.31 21.42, 25.94 23.5 C23.56 25.58, 20.03 26.87, 16.71 26.87 C13.39 26.86, 8.67 25.3, 6.04 23.47 C3.41 21.64, 1.6 18.46, 0.93 15.87 C0.26 13.27, 0.51 10.31, 2.04 7.93 C3.57 5.54, 6.98 2.64, 10.11 1.54 C13.25 0.44, 19.1 1.34, 20.88 1.33 C22.65 1.32, 20.72 1.49, 20.77 1.47 M19.14 1.59 C22.26 1.83, 26.19 2.14, 28.26 4.12 C30.33 6.1, 31.66 10.3, 31.55 13.47 C31.43 16.64, 30.1 21.03, 27.55 23.13 C25.01 25.23, 19.55 25.75, 16.27 26.06 C12.99 26.36, 10.54 26.36, 7.87 24.96 C5.19 23.56, 1.32 20.47, 0.21 17.68 C-0.9 14.89, 0.09 10.9, 1.21 8.23 C2.33 5.55, 4.26 2.78, 6.93 1.64 C9.61 0.5, 15.58 1.71, 17.27 1.41 C18.96 1.12, 17.08 -0.38, 17.07 -0.12" stroke="#1e1e1e" stroke-width="1" fill="none"></path></g><g stroke-linecap="round" transform="translate(374.8263481653462 13.11161109648387) rotate(0 15.291893056320077 13.390459321668772)"><path d="M10.33 1.55 C13.47 0.57, 18.87 0.23, 21.9 1.23 C24.93 2.23, 27.07 4.87, 28.5 7.53 C29.93 10.2, 31.14 14.36, 30.47 17.23 C29.81 20.09, 27.21 22.98, 24.52 24.72 C21.82 26.45, 17.46 28.07, 14.32 27.66 C11.18 27.24, 7.95 24.28, 5.69 22.25 C3.42 20.22, 1.32 18.2, 0.72 15.45 C0.12 12.71, 0.24 8.23, 2.09 5.81 C3.94 3.39, 9.93 1.9, 11.83 0.95 C13.73 0, 13.46 0.03, 13.49 0.1 M16.49 1.16 C19.87 1.33, 25.35 3.58, 27.66 5.47 C29.97 7.36, 30.46 9.6, 30.34 12.52 C30.22 15.44, 29.11 20.67, 26.95 22.98 C24.78 25.29, 20.75 26.12, 17.36 26.39 C13.96 26.65, 9.1 25.92, 6.6 24.57 C4.1 23.23, 3.44 20.64, 2.37 18.3 C1.31 15.95, -0.8 13.15, 0.19 10.5 C1.18 7.84, 5.48 3.96, 8.3 2.35 C11.12 0.74, 15.53 0.96, 17.1 0.83 C18.67 0.71, 17.45 1.55, 17.72 1.61" stroke="#1e1e1e" stroke-width="1" fill="none"></path></g><g stroke-linecap="round"><g transform="translate(377.29648866655475 31.748725436223936) rotate(0 -43.12817412080085 25.687347399198906)"><path d="M0.74 0.61 C-13.73 9.13, -71.34 41.67, -85.79 50.1 M-0.33 -0.12 C-15.1 8.68, -72.55 43.26, -87 51.49" stroke="#1e1e1e" stroke-width="1" fill="none"></path></g></g><mask></mask><g stroke-linecap="round"><g transform="translate(232.99432729361638 98.61868402786087) rotate(0 -61.33205574811461 7.876442839309954)"><path d="M0.99 0.22 C-19.45 2.62, -103.07 12.58, -123.65 15.45 M0.05 -0.72 C-19.92 2.33, -100.85 13.75, -121.38 16.47" stroke="#1e1e1e" stroke-width="1" fill="none"></path></g></g><mask></mask><g stroke-linecap="round" transform="translate(80.08305608080627 101.32434955360345) rotate(0 15.291893056320077 13.390459321668772)"><path d="M15.28 -0.75 C18.36 -1.18, 22.71 0.34, 25.29 2.36 C27.86 4.37, 30.07 8.45, 30.72 11.34 C31.36 14.22, 30.86 17.3, 29.15 19.69 C27.44 22.07, 23.51 24.62, 20.44 25.63 C17.38 26.63, 13.63 26.68, 10.76 25.71 C7.9 24.74, 5.03 22.3, 3.26 19.8 C1.48 17.3, -0.2 13.58, 0.13 10.73 C0.46 7.87, 2.54 4.31, 5.25 2.69 C7.95 1.08, 13.99 1.24, 16.36 1.04 C18.72 0.83, 19.46 1.44, 19.46 1.48 M12.79 -0.63 C15.93 -1.45, 20.33 -0.85, 23.18 0.64 C26.03 2.13, 28.53 5.69, 29.89 8.32 C31.24 10.94, 32.35 13.76, 31.3 16.4 C30.24 19.03, 26.76 22.43, 23.57 24.14 C20.38 25.85, 15.45 26.84, 12.17 26.64 C8.88 26.44, 5.73 25.05, 3.86 22.96 C1.99 20.87, 0.81 16.98, 0.95 14.1 C1.08 11.21, 3.02 7.91, 4.65 5.63 C6.28 3.35, 9.62 1.49, 10.73 0.41 C11.83 -0.66, 10.97 -0.98, 11.28 -0.81" stroke="#1e1e1e" stroke-width="1" fill="none"></path></g><g stroke-linecap="round"><g transform="translate(126.05830680485417 254.56688767083938) rotate(0 -40.26847589707239 -17.078925975138645)"><path d="M-1.12 -0.34 C-14.38 -5.82, -66.85 -26.8, -79.87 -32.05 M0.5 -1.56 C-12.93 -7.47, -67.63 -28.47, -81.03 -33.82" stroke="#1e1e1e" stroke-width="1" fill="none"></path></g></g><mask></mask><g stroke-linecap="round" transform="translate(16.728739318796556 204.457502573063) rotate(0 15.291893056320077 13.390459321668772)"><path d="M19.79 0.47 C22.95 0.88, 25.96 2.83, 27.62 5.22 C29.28 7.62, 29.98 11.73, 29.76 14.84 C29.55 17.95, 28.59 22.02, 26.34 23.88 C24.09 25.75, 19.55 26.1, 16.28 26.03 C13 25.96, 9.21 24.91, 6.71 23.49 C4.21 22.06, 2.02 20.17, 1.29 17.46 C0.56 14.75, 0.89 9.79, 2.32 7.25 C3.75 4.7, 6.37 3.01, 9.88 2.2 C13.38 1.39, 20.75 2.24, 23.35 2.4 C25.95 2.56, 25.83 2.99, 25.47 3.18 M16.24 -1.06 C19.38 -0.9, 23.56 1.66, 25.93 3.78 C28.3 5.89, 30.15 9.06, 30.43 11.63 C30.71 14.21, 29.09 16.67, 27.62 19.21 C26.16 21.74, 24.61 25.7, 21.65 26.84 C18.69 27.99, 13.21 27.3, 9.86 26.06 C6.5 24.82, 3.16 21.76, 1.5 19.4 C-0.17 17.04, -0.89 14.4, -0.14 11.91 C0.61 9.41, 3.51 6.22, 5.98 4.43 C8.46 2.64, 13.28 1.99, 14.72 1.17 C16.16 0.35, 14.65 -0.46, 14.6 -0.47" stroke="#1e1e1e" stroke-width="1" fill="none"></path></g><g stroke-linecap="round" transform="translate(10 281.2578089470787) rotate(0 15.291893056320077 13.390459321668772)"><path d="M18.3 -0.39 C21.53 0.14, 25.18 3.08, 27.4 5.38 C29.61 7.69, 31.8 10.71, 31.57 13.45 C31.35 16.18, 28.42 19.57, 26.06 21.79 C23.7 24.02, 20.58 26.3, 17.42 26.79 C14.26 27.29, 9.7 26.15, 7.07 24.75 C4.45 23.36, 2.65 21.18, 1.66 18.43 C0.68 15.69, 0.14 10.95, 1.18 8.3 C2.22 5.65, 4.66 3.73, 7.91 2.54 C11.17 1.35, 18.3 1.19, 20.71 1.16 C23.12 1.13, 22.67 2.21, 22.39 2.37 M21.75 0.46 C24.53 1.13, 25.83 3.93, 27.44 6.7 C29.06 9.47, 31.77 14.46, 31.44 17.09 C31.12 19.72, 28.1 20.65, 25.5 22.49 C22.9 24.34, 19.02 28.06, 15.83 28.16 C12.64 28.25, 9.16 25.41, 6.35 23.06 C3.54 20.71, -0.45 16.61, -1.01 14.07 C-1.58 11.53, 1.26 10.08, 2.94 7.82 C4.61 5.56, 6.25 1.73, 9.02 0.52 C11.79 -0.7, 17.64 0.45, 19.56 0.51 C21.49 0.56, 20.59 0.78, 20.57 0.84" stroke="#1e1e1e" stroke-width="1" fill="none"></path></g><g stroke-linecap="round"><g transform="translate(42.35692572823666 293.3155413006534) rotate(0 40.89040125772925 -9.392700089426171)"><path d="M-0.19 0.53 C13.9 -2.54, 69.53 -15.95, 83.52 -19.32 M-1.74 -0.24 C12.28 -3.07, 68.49 -14.94, 82.65 -18.04" stroke="#1e1e1e" stroke-width="1" fill="none"></path></g></g><mask></mask><g stroke-linecap="round"><g transform="translate(45.52789679025341 208.24313650398523) rotate(0 98.10157107927967 -46.37182525320854)"><path d="M0.29 -1.09 C32.96 -16.57, 162.49 -78.33, 195 -93.7 M-1.01 0.96 C32.11 -14.24, 164.67 -76.05, 197.21 -92.11" stroke="#1e1e1e" stroke-width="1" fill="none"></path></g><g transform="translate(45.52789679025341 208.24313650398523) rotate(0 98.10157107927967 -46.37182525320854)"><path d="M174.39 -72.28 C181.08 -76.39, 186.28 -81.95, 197.18 -90.83 M175.78 -71.36 C183.15 -76.72, 189.87 -84.9, 197.24 -91.49" stroke="#1e1e1e" stroke-width="1" fill="none"></path></g><g transform="translate(45.52789679025341 208.24313650398523) rotate(0 98.10157107927967 -46.37182525320854)"><path d="M165.54 -90.79 C174.04 -90.9, 181.16 -92.43, 197.18 -90.83 M166.94 -89.88 C177.22 -89.2, 186.8 -91.38, 197.24 -91.49" stroke="#1e1e1e" stroke-width="1" fill="none"></path></g></g><mask></mask><g stroke-linecap="round" transform="translate(548.2034036238301 191.51320041169006) rotate(0 15.291893056320077 13.390459321668772)"><path d="M7.57 2.24 C9.98 0.88, 14.7 -0.09, 17.96 0.39 C21.21 0.88, 25.01 2.93, 27.1 5.17 C29.19 7.41, 30.41 10.86, 30.47 13.82 C30.54 16.78, 29.81 20.91, 27.48 22.91 C25.14 24.92, 20 25.61, 16.46 25.85 C12.92 26.1, 8.91 25.84, 6.22 24.37 C3.53 22.91, 1.14 19.7, 0.32 17.06 C-0.51 14.42, -0.24 11.25, 1.24 8.54 C2.72 5.83, 7.25 2.15, 9.21 0.81 C11.16 -0.53, 12.83 0.35, 12.98 0.52 M8.24 1.01 C11.23 -0.62, 16.11 -0.77, 19.54 -0.18 C22.97 0.41, 27.18 2.09, 28.82 4.53 C30.46 6.98, 29.78 11.58, 29.38 14.47 C28.99 17.36, 28.62 19.88, 26.45 21.86 C24.28 23.84, 19.74 25.76, 16.34 26.35 C12.93 26.94, 8.48 26.65, 6.02 25.38 C3.56 24.12, 2.18 21.53, 1.55 18.74 C0.93 15.95, 1.23 11.47, 2.27 8.65 C3.32 5.84, 6.96 3.19, 7.82 1.83 C8.67 0.47, 7.48 0.22, 7.43 0.5" stroke="#1e1e1e" stroke-width="1" fill="none"></path></g><g stroke-linecap="round"><g transform="translate(474.5587496110486 236.34146341463412) rotate(0 37.325096685413655 -13.473354894170711)"><path d="M0.56 0.12 C13.3 -3.99, 62.79 -21.2, 75.25 -25.4 M-0.6 -0.87 C12.05 -5.24, 61.57 -22.74, 74.06 -27.06" stroke="#1e1e1e" stroke-width="1" fill="none"></path></g></g><mask></mask><g stroke-linecap="round" transform="translate(577.4161660164198 264.2885181550539) rotate(0 15.291893056320077 13.390459321668772)"><path d="M12.99 -0.84 C16.12 -1.28, 21.77 0, 24.49 1.71 C27.21 3.42, 28.48 6.6, 29.3 9.43 C30.11 12.25, 30.57 16.06, 29.39 18.68 C28.21 21.29, 25.31 24.01, 22.22 25.13 C19.14 26.24, 14.1 25.9, 10.88 25.37 C7.66 24.84, 4.66 23.98, 2.9 21.96 C1.15 19.94, 0.11 16.27, 0.33 13.25 C0.55 10.23, 1.35 6, 4.21 3.86 C7.08 1.71, 14.77 0.75, 17.52 0.38 C20.28 0.02, 20.91 1.63, 20.77 1.66 M16.79 0.79 C19.67 0.61, 22.77 0.24, 24.86 2.24 C26.94 4.23, 28.92 9.8, 29.32 12.75 C29.72 15.7, 28.66 17.86, 27.25 19.95 C25.84 22.03, 23.66 24.35, 20.84 25.28 C18.02 26.22, 13.69 26.32, 10.34 25.56 C6.99 24.8, 2.65 23.09, 0.73 20.72 C-1.19 18.35, -1.89 14.15, -1.17 11.34 C-0.44 8.54, 2.28 5.73, 5.07 3.87 C7.86 2.01, 13.73 0.95, 15.58 0.19 C17.42 -0.57, 16.28 -0.66, 16.14 -0.7" stroke="#1e1e1e" stroke-width="1" fill="none"></path></g><g stroke-linecap="round"><g transform="translate(474.8881016778762 263.1874865362981) rotate(0 49.86642157073459 8.637624704019018)"><path d="M-0.22 -1.04 C16.54 1.86, 84.66 15.07, 101.53 18.32 M-1.8 1.02 C14.73 3.5, 83.66 13.94, 100.63 16.53" stroke="#1e1e1e" stroke-width="1" fill="none"></path></g></g><mask></mask><g stroke-linecap="round"><g transform="translate(173.09820723329904 288.6701452883027) rotate(0 79.46277638085724 32.682615210900366)"><path d="M-0.44 0.71 C26.23 11.3, 132.61 53.11, 159.36 63.81 M1.53 0.04 C28.05 10.81, 131.81 54.8, 158.12 65.32" stroke="#1e1e1e" stroke-width="1" fill="none"></path></g></g><mask></mask><g stroke-linecap="round" transform="translate(329.35661456712705 333.2743722922999) rotate(0 30.890160128294156 28.26300294406279)"><path d="M25.2 1.53 C31.29 0.24, 40.11 1.14, 45.75 3.96 C51.39 6.77, 56.57 12.88, 59.07 18.43 C61.56 23.99, 62.79 31.57, 60.73 37.29 C58.67 43, 52.52 49.49, 46.71 52.72 C40.89 55.95, 32.39 57.5, 25.86 56.68 C19.33 55.86, 11.95 52.26, 7.53 47.81 C3.11 43.35, -0.66 35.94, -0.67 29.93 C-0.68 23.92, 2.52 16.74, 7.48 11.74 C12.45 6.74, 25.02 1.79, 29.14 -0.05 C33.25 -1.89, 32.2 0.24, 32.15 0.72 M33.35 1.55 C39.34 1.82, 46.48 4.48, 51.38 8.7 C56.29 12.92, 61.7 20.87, 62.76 26.89 C63.83 32.92, 61.83 40.04, 57.77 44.83 C53.71 49.63, 45.26 54.36, 38.42 55.65 C31.58 56.94, 22.4 55.02, 16.74 52.57 C11.07 50.12, 6.93 46.29, 4.43 40.95 C1.93 35.6, 0.55 26.67, 1.72 20.51 C2.9 14.34, 6.41 7.15, 11.5 3.95 C16.59 0.75, 28.86 1.87, 32.25 1.31 C35.64 0.76, 31.5 0.4, 31.82 0.64" stroke="#1e1e1e" stroke-width="1" fill="none"></path></g><g stroke-linecap="round"><g transform="translate(394.79810431077817 356.44007755092264) rotate(0 94.60335918209614 -34.03579171052624)"><path d="M0.14 -1.16 C31.45 -12.28, 156.73 -56.26, 188.34 -67.37 M-1.24 0.85 C30.37 -10.52, 158.7 -57.13, 190.45 -68.92" stroke="#1e1e1e" stroke-width="1" fill="none"></path></g></g><mask></mask></svg>